<svg xmlns="http://www.w3.org/2000/svg" xmlns:xlink="http://www.w3.org/1999/xlink" width="91" height="14"><defs><path id="a" d="M270.44 3042.06l-5.618 5.657a.988.988 0 0 1-1.405 0 1.005 1.005 0 0 1 0-1.415l5.413-5.45-5.122-5.156a1.005 1.005 0 0 1 0-1.415.988.988 0 0 1 1.405 0l5.618 5.658c.388.39.388 1.023 0 1.413a1 1 0 0 1-.291.708z"/><path id="b" d="M180 3040.5a1 1 0 0 1 1-1h78a1 1 0 0 1 0 2h-78a1 1 0 0 1-1-1z"/></defs><use fill="#883eca" xlink:href="#a" transform="translate(-180 -3034)"/><use fill="#883eca" xlink:href="#b" transform="translate(-180 -3034)"/></svg>